# xmcd
#
# Track frame offsets: 
#        182
#        12032
#        21902
#        35172
#        48222
#        60995
#        73457
#        87957
#        97342
#        110282
#        119782
#        135112
#
# Disc length: 1980 seconds
#
# Revision: 3
# Processed by: cddbd v1.5.2PL0 Copyright (c) Steve Scherf et al.
# Submitted via: ExactAudioCopyFreeDBPlugin 1.0
#
DISCID=a307ba0c
DTITLE=Nat King Cole - Mona Lisa
DYEAR=1993
DGENRE=Blues
TTITLE0=Love is a many splendored thing
TTITLE1=Moon love
TTITLE2=Tenderly
TTITLE3=Coquette
TTITLE4=Smile
TTITLE5=Ramblin'rose
TTITLE6=Stardust
TTITLE7=Tell me all about yourself
TTITLE8=Answer me my love
TTITLE9=When my sugar walks down
TTITLE10=Mona Lisa
TTITLE11=Just you just me
EXTD=
EXTT0=
EXTT1=
EXTT2=
EXTT3=
EXTT4=
EXTT5=
EXTT6=
EXTT7=
EXTT8=
EXTT9=
EXTT10=
EXTT11=
PLAYORDER=
